REM MD5 888e3652f55ae78e4b716908111cded3
FILE "Wolf Fang - Kuuga 2001 (Japan).bin" BINARY
  TRACK 01 MODE2/2352
    INDEX 01 00:00:00
  TRACK 02 AUDIO
    INDEX 00 42:31:22
    INDEX 01 42:33:22
  TRACK 03 AUDIO
    INDEX 00 44:06:59
    INDEX 01 44:08:59
REM LEADOUT 46:34:58
